<svg xmlns="http://www.w3.org/2000/svg" width="423" height="423" fill="none" viewBox="0 0 470 491">
  <rect width="423" height="423" x="47" y="68" fill="#0E3C7F" rx="66"/>
  <path fill="#C7DCF9" fill-rule="evenodd" d="m139 207.859 59.037-33.847L257.484 140v99.534h-49.562c-7.744 0-15.488 7.744-15.488 15.488v50.612c0 7.744 7.744 15.488 15.488 15.488h49.562v97.663l-59.447-33.816L139 351.123V207.859Zm173.048-4.552c-.994-1.517-1.041-2.204-.263-3.91.801-1.759 1.354-2.035 3.69-1.837 2.194.185 2.897.656 3.484 2.338 1.51 4.317-4.405 7.235-6.911 3.409Zm38.341 24.686c0-.639.697-1.859 1.549-2.71.852-.852 2.072-1.549 2.711-1.549.638 0 1.858.697 2.71 1.549.852.851 1.549 2.071 1.549 2.71 0 .639-.697 1.859-1.549 2.71-.852.852-2.072 1.549-2.71 1.549-.639 0-1.859-.697-2.711-1.549-.852-.851-1.549-2.071-1.549-2.71Zm-40.157 20.522c-3.493 0-5.416-3.363-3.494-6.107 1.673-2.389 5.474-2.217 6.621.299 1.333 2.926-.218 5.808-3.127 5.808Zm41.574 27.371c-1.731-1.566-1.773-2.512-.211-4.741 1.632-2.33 4.622-2.226 6.222.214 1.175 1.794 1.175 2.079 0 3.873-1.462 2.232-3.966 2.505-6.011.654Zm-51.753 39.227c0-1.107.418-2.431.929-2.943.512-.511 1.836-.929 2.943-.929 1.108 0 2.432.418 2.943.929.511.512.929 1.836.929 2.943 0 1.108-.418 2.432-.929 2.943-.511.511-1.835.929-2.943.929-2.559 0-3.872-1.312-3.872-3.872Zm51.161 10.701c-1.059-1.895-1.034-2.216.289-3.679 1.981-2.188 4.758-2.041 6.314.335 1.177 1.797 1.175 2.079-.031 3.919-1.713 2.615-4.948 2.332-6.572-.575Zm-30.838 31.035c-2.354-.871-3.071-4.211-1.322-6.144 1.923-2.124 4.704-1.925 6.259.45 2.339 3.57-.823 7.216-4.937 5.694ZM266.94 175.864l.201 35.865 4.951.611c2.723.335 6.981 1.294 9.462 2.13 2.481.836 5.729 1.52 7.217 1.52 3.881 0 10.574-2.709 13.991-5.663 2.585-2.234 2.83-2.736 2.05-4.195-1.454-2.717-1.078-8.623.737-11.559 4.482-7.253 16.032-6.526 20.174 1.27 1.848 3.476 1.814 6.482-.115 10.467-1.963 4.057-6.509 6.79-10.78 6.481-2.54-.183-3.503.232-6.205 2.674-1.76 1.589-5.046 3.795-7.301 4.902l-4.103 2.012 5.095 5.207c4.545 4.645 5.486 5.25 8.704 5.608 4.762.529 7.97 2.927 9.589 7.166 3.033 7.942-2.396 15.899-10.848 15.899-5.063 0-9.988-3.818-11.324-8.775-.646-2.4-.556-3.843.428-6.849 1.203-3.681 1.19-3.88-.395-5.902-2.891-3.688-8.716-8.055-14.318-10.733-5.131-2.452-16.056-5.22-16.976-4.3-.147.146-.121 4.319-.082 10.538.022 3.599.049 7.883.049 12.469 0 3.024-.005 5.689-.009 8.028-.021 11.221-.028 14.961.59 15.129 9.125 2.485 9.979 2.945 16.066 8.637l6.163 5.764 10.666.1c19.338.181 21.636-.23 30.262-5.412 2.851-1.712 6.752-3.514 8.669-4.002 2.657-.676 3.911-1.548 5.283-3.668 1.67-2.584 1.739-3.118.968-7.547-1.052-6.038-1.056-12.041-.012-17.688.759-4.105.668-4.734-1.236-8.626-1.668-3.411-1.952-4.797-1.514-7.393 1.081-6.4 7.668-10.879 14.196-9.654 5.789 1.086 10.245 8.561 8.617 14.457-1.396 5.055-4.127 7.402-10.127 8.702-1.728.375-2.094.962-2.516 4.043-.593 4.323-.501 12.186.18 15.361.393 1.83 1.018 2.399 3.105 2.826 5.642 1.154 9.684 5.908 9.684 11.39 0 6.988-4.708 11.758-11.606 11.758-4.106 0-9.159-2.807-10.037-5.575-.647-2.037-3.03-1.439-9.852 2.474-2.891 1.657-5.953 3.235-6.806 3.506-1.323.419-.241 1.743 7.352 8.993 4.897 4.676 10.522 10.66 12.501 13.298 3.486 4.645 3.732 4.81 7.834 5.28 3.389.387 4.768 1 6.903 3.07 4.339 4.205 5.066 11.073 1.644 15.513-5.121 6.643-16.576 5.562-19.956-1.883-1.811-3.989-1.861-5.817-.268-9.798l1.24-3.099-3.876-4.854c-4.244-5.316-15.105-16.069-19.725-19.528-4.14-3.101-10.159-4.274-22.001-4.287-5.616-.007-11.19-.385-12.387-.84-1.196-.455-4.657-3.234-7.69-6.175-5.385-5.221-8.154-6.937-11.194-6.937-1.462 0-1.498.968-1.498 40.269 0 38.291.069 40.269 1.397 40.269 2.486 0 8.985-3.738 13.51-7.771 4.425-3.944 11.934-14.34 14.097-19.515 1.03-2.464 1.026-2.869-.037-3.751-3.71-3.08-4.549-10.436-1.669-14.654 4.929-7.22 15.488-7.121 19.944.188 2.021 3.313 2.021 8.704 0 12.017-1.652 2.709-5.74 5.599-7.928 5.604-.84.002-2.11 1.523-3.397 4.069-3.025 5.984-6.997 12.046-10.936 16.687-1.915 2.256-3.353 4.173-3.196 4.259 9.876 5.409 12.697 6.012 18.637 3.988 3.401-1.158 3.541-1.329 3.933-4.813.742-6.582 7.732-10.818 14.503-8.789 3.663 1.097 7.493 5.338 8.193 9.074.735 3.912-1.634 9.419-5.038 11.713-3.372 2.273-9.52 2.407-12.749.278-2.061-1.359-2.48-1.385-5.421-.334-1.753.627-5.474 1.337-8.269 1.578-4.761.412-5.415.262-10.377-2.372-6.425-3.409-9.88-3.59-18.658-.981l-6.517 1.945v55.757l118.44-67.662V207.859l-54.699-31.364c-30.084-17.25-56.741-32.518-59.238-33.929L266.776 140l.164 35.864Zm-62.542 73.052c-1.922 2.743.002 6.106 3.494 6.106 2.909 0 4.461-2.882 3.127-5.808-1.146-2.516-4.947-2.688-6.621-.298Zm3.494 64.163c-3.492 0-5.416-3.363-3.494-6.106 1.674-2.39 5.475-2.218 6.621.298 1.334 2.926-.218 5.808-3.127 5.808Zm40.299-101.834h-9.293v20.134h9.293v-20.134Zm-9.293 119.258h9.293v20.134h-9.293v-20.134Zm-4.647 0h-9.292v20.134h9.292v-20.134Zm-69.696-65.05v-9.293h20.135v9.293h-20.135Zm0 4.647v9.292h20.135V270.1h-20.135Zm0 23.232v-9.293h20.135v9.293h-20.135Zm0 4.646v9.293h20.135v-9.293h-20.135Zm46.464-86.733h9.293v20.134h-9.293v-20.134Zm9.293 119.258h-9.293v20.134h9.293v-20.134Zm4.647-119.258h9.292v20.134h-9.292v-20.134Z" clip-rule="evenodd"/>
</svg>
