<svg width="216" height="237" viewBox="0 0 216 237" fill="none" xmlns="http://www.w3.org/2000/svg">
<g filter="url(#filter0_i_505_1342)">
<path fill-rule="evenodd" clip-rule="evenodd" d="M115.808 2.03445C110.956 -0.678149 105.044 -0.678152 100.192 2.03445L8.19209 53.4702C3.13372 56.2982 0 61.6405 0 67.4357V169.427C0 175.222 3.13372 180.564 8.19208 183.392L100.192 234.828C105.044 237.541 110.956 237.541 115.808 234.828L207.808 183.392C212.866 180.564 216 175.222 216 169.427V67.4357C216 61.6405 212.866 56.2982 207.808 53.4702L115.808 2.03445ZM70.1954 51.0863C73.9498 48.6898 78.8528 46.869 83.1745 46.2662C92.3496 44.9857 102.052 47.9667 108.868 54.1603C114.41 59.1953 117.994 66.3326 118.616 73.5715L118.833 76.0956L128.113 76.1704L137.393 76.2451V67.184V58.1228H153.03H168.667V64.0666V70.0104H159.314H149.961V91.2381V112.466H159.314H168.667V118.41V124.353H159.314H149.961V145.581V166.809H159.314H168.667V172.752V178.696H153.03H137.393V169.635V160.574L128.113 160.649L118.833 160.723L118.616 163.248C117.564 175.49 108.56 186.153 96.3907 189.567C87.3518 192.104 78.0426 190.741 70.1954 185.733C65.5343 182.758 60.9771 177.433 58.9369 172.577C58.3079 171.079 58.1583 170.935 56.6121 170.325C51.5974 168.35 46.0981 163.937 43.0262 159.423C36.0225 149.133 36.0584 136.15 43.1194 125.627C43.7461 124.693 45.5506 122.687 47.1295 121.169L50.0006 118.41L47.1295 115.65C45.5506 114.132 43.7461 112.126 43.1194 111.192C36.0584 100.669 36.0225 87.686 43.0262 77.3959C46.0981 72.8823 51.5974 68.4692 56.6121 66.4936C58.1583 65.8845 58.3079 65.7396 58.9369 64.2424C60.9771 59.3863 65.5343 54.061 70.1954 51.0863ZM106.095 73.781C105.096 66.7971 100.436 61.3727 93.3387 58.932C91.0741 58.1531 85.6622 57.9536 83.1938 58.5579C79.2778 59.5165 74.9777 62.2512 72.6453 65.2661C70.0297 68.6473 68.8249 72.6834 69.0824 77.2017C69.3253 81.4637 70.6651 84.7016 73.5482 87.9925L75.1601 89.8325L71.1631 94.2148C68.9649 96.6251 67.0685 98.597 66.9487 98.597C66.5491 98.597 63.0213 94.791 61.8945 93.1443C59.6565 89.8741 57.5237 84.9196 57.1172 82.0473C57.0172 81.3426 56.8234 80.7657 56.686 80.7657C56.2193 80.7657 53.9506 83.3114 52.837 85.0846C51.0175 87.9823 50.4385 90.2223 50.4411 94.3515C50.4437 98.2647 50.7606 99.5585 52.5219 102.849C55.1855 107.825 60.4735 111.356 66.4623 112.159C67.8118 112.34 73.8904 112.466 81.2957 112.466H93.8429V118.41V124.353H81.2957C73.8904 124.353 67.8118 124.479 66.4623 124.66C59.1444 125.641 53.4619 130.31 50.9886 137.373C50.1643 139.727 50.2143 145.315 51.0833 147.987C51.8467 150.333 53.4639 153.006 55.191 154.777C56.5659 156.186 57.0152 156.354 57.0152 155.457C57.0152 154.393 57.909 151.439 58.9755 148.977C60.2501 146.036 63.1896 141.667 65.1263 139.836L66.5626 138.478L69.7365 141.817C71.482 143.654 73.3634 145.625 73.9173 146.199L74.9245 147.241L73.5806 148.729C67.872 155.048 67.4698 164.863 72.6453 171.553C75.0689 174.686 79.3515 177.35 83.475 178.291C86.1599 178.903 90.9335 178.706 93.3387 177.884C100.423 175.461 105.096 170.023 106.095 163.038C106.536 159.95 106.536 76.8689 106.095 73.781ZM137.393 112.474V100.299V88.1247H128.177C121.071 88.1247 118.929 88.2056 118.821 88.4788C118.743 88.6732 118.715 94.1182 118.757 100.579L118.833 112.324L128.113 112.399L137.393 112.474ZM137.393 148.702V136.528V124.353H128.177C121.071 124.353 118.929 124.434 118.821 124.707C118.743 124.902 118.715 130.347 118.757 136.807L118.833 148.553L128.113 148.628L137.393 148.702Z" fill="#FFDE28"/>
</g>
<defs>
<filter id="filter0_i_505_1342" x="0" y="0" width="216" height="242.863" filterUnits="userSpaceOnUse" color-interpolation-filters="sRGB">
<feFlood flood-opacity="0" result="BackgroundImageFix"/>
<feBlend mode="normal" in="SourceGraphic" in2="BackgroundImageFix" result="shape"/>
<feColorMatrix in="SourceAlpha" type="matrix" values="0 0 0 0 0 0 0 0 0 0 0 0 0 0 0 0 0 0 127 0" result="hardAlpha"/>
<feOffset dy="6"/>
<feGaussianBlur stdDeviation="3.5"/>
<feComposite in2="hardAlpha" operator="arithmetic" k2="-1" k3="1"/>
<feColorMatrix type="matrix" values="0 0 0 0 0 0 0 0 0 0 0 0 0 0 0 0 0 0 0.4 0"/>
<feBlend mode="normal" in2="shape" result="effect1_innerShadow_505_1342"/>
</filter>
</defs>
</svg>
